<svg id="svg" xmlns="http://www.w3.org/2000/svg" xmlns:xlink="http://www.w3.org/1999/xlink" width="45" height="60" viewBox="0, 0, 15, 20"><g id="svgg"><path id="path0" transform="scale(.04,.05) translate(-40,-30)" d="M157.292 41.667 L 149.154 50.000 99.577 50.000 L 50.000 50.000 50.000 66.547 L 50.000 83.094 58.780 83.734 L 67.559 84.375 82.563 213.542 C 98.783 353.178,98.707 352.798,112.287 361.915 C 123.414 369.384,276.586 369.384,287.713 361.915 C 301.293 352.798,301.217 353.178,317.437 213.542 L 332.441 84.375 341.220 83.734 L 350.000 83.094 350.000 66.547 L 350.000 50.000 300.423 50.000 L 250.846 50.000 242.708 41.667 L 234.571 33.333 200.000 33.333 L 165.429 33.333 157.292 41.667 M295.906 85.938 C 295.946 87.370,289.618 143.619,281.844 210.935 L 267.708 333.329 199.993 333.331 L 132.278 333.333 118.146 210.938 C 110.373 143.620,104.048 87.370,104.090 85.938 C 104.202 82.124,295.799 82.124,295.906 85.938 " stroke="none" fill="#fb3122" fill-rule="evenodd"></path></g></svg>